<?xml version="1.0" encoding="utf-8"?>
<!-- Generator: Adobe Illustrator 22.1.0, SVG Export Plug-In . SVG Version: 6.00 Build 0)  -->
<svg version="1.1" id="Layer_1" xmlns="http://www.w3.org/2000/svg" xmlns:xlink="http://www.w3.org/1999/xlink" x="0px" y="0px"
	 viewBox="0 0 385.1 78.8" enable-background="new 0 0 385.1 78.8" xml:space="preserve">
<g>
	<path d="M353.5,43.6l-2.7,6.7l5,0l-2.6,6l-27.8,0l2.4-6l5.8,0l8.6-19.7l-5.8,0l1.9-6l37.3,0c6.7,0,8.6,0.9,9.4,3.4
		c0.2,2.8-0.7,4.5-1.8,7c-1.3,3.3-4.8,8.6-11.8,8.6L353.5,43.6L353.5,43.6z M363,37.5c2.6,0,2.9-1.4,3.3-1.8
		c0.6-1.2,0.8-1.7,1.2-2.6c0.3-0.8,0.4-2.5-2-2.5c-1.9-0.1-6.2,0-6.2,0l-2.9,7C356.4,37.5,361.7,37.5,363,37.5L363,37.5z"/>
	<path d="M70.4,56.3l2.6-6l5.6,0l8.8-19.7l-5.1,0l2.5-6l39.4,0c2.1,0.5,4.3,1.5,5.5,3.5c2.9,5.2-1,10.3-2.7,15
		c-2.7,5.5-6.9,12.1-13.6,12.8l-2.7,0.3H70.4L70.4,56.3z M102.4,50.3c1.5-0.1,2.2-0.4,3.4-1.6c2.5-2.9,6.8-12.9,6.9-16
		c0.2-1.1-0.9-2.1-2.5-2.1c-2.4,0-6.5,0-6.5,0l-8.8,19.7C94.9,50.3,99.7,50.3,102.4,50.3L102.4,50.3z"/>
	<path d="M298,56.5c-3.7,0-6.4-0.2-10.1-0.4c-3.2-0.1-6.5-1.4-7.9-4.4c-1.6-4.6,0.6-7.6,2.6-11.7c3.5-7.4,5.3-12.2,11-14.3
		c4.9-2,10.8-1.4,16.3-1.8c5.4,0,10.5,0.2,15.7,0.8c2.6,0.6,5.7,1.5,6.7,4.5c0.8,3.9-1.7,7.6-2.3,9.2c-3.1,6.7-3.2,7-6,11.3
		c-2.3,3.6-7.4,5.8-11.2,6c-4.3,0.4-9.7,0.6-14.1,0.6H298L298,56.5z M310.5,45.4c1.7-3.7,3.3-6.6,4.7-10.3c0.6-1.5,1.7-5.6-5.3-5.6
		c-6.8-0.1-8.4,3.3-9.1,4.9c-1.2,2.7-4.3,8.4-4.8,10.6c-1.5,5.1,2.7,5.4,4.6,5.3C300.6,50.3,307.9,51,310.5,45.4L310.5,45.4z"/>
	<path d="M178.1,30.6c0,0-5.2,13.4-8.7,19.3c-3,5-8.8,6.3-14.3,6.6c-5.8,0.3-12,0.6-17.5-0.3c-2.5-0.6-4.9-2.9-5.3-5.5
		c-0.4-1.8,0.2-3.5,0.9-5c2.3-4.8,6.4-15.1,6.4-15.1H134l2.6-6l27.8,0l-2.4,6l-5.4,0l-6.4,15.1c-0.5,1.2-0.4,2.4,0.5,3.4
		c2,1.7,5.4,1.5,7.9,1c2.1-0.6,4.1-2.6,5-4.5l6.4-14.9l-5,0l2.6-6H186l-2.6,6L178.1,30.6L178.1,30.6z"/>
	<polygon points="232.5,30.6 221.4,56.3 208.2,56.3 198,36.9 192.1,50.3 197.3,50.3 194.8,56.3 175.5,56.3 178.1,50.3 184,50.3 
		192.5,30.6 187,30.6 189.3,24.6 209,24.6 218.7,43.5 224.2,30.6 219.2,30.6 221.6,24.6 240.3,24.6 238,30.6 232.5,30.6 	"/>
	<polygon points="264.4,30.6 256.2,50.3 265,50.3 273.2,41 278.8,41.1 272.1,56.3 230.1,56.3 232.9,50.3 238.6,50.3 247,30.6 
		241.6,30.6 244,24.6 272.4,24.6 269.8,30.6 264.4,30.6 	"/>
	<path d="M358.7,53.3v-1h0.7c0.3,0,0.7,0.1,0.7,0.5c0,0.5-0.4,0.5-0.8,0.5H358.7z M358.7,53.8h0.5l0.9,1.4h0.6l-0.9-1.5
		c0.5-0.1,0.9-0.3,0.9-0.9c0-0.7-0.4-1-1.2-1h-1.3v3.4h0.6V53.8z M362.2,53.5c0-1.8-1.4-3-3-3c-1.6,0-3,1.2-3,3c0,1.7,1.2,3,3,3
		C360.9,56.5,362.2,55.3,362.2,53.5z M361.6,53.5c0,1.5-1,2.5-2.3,2.5c-1.4,0-2.3-1.1-2.3-2.5c0-1.5,1-2.5,2.3-2.5
		C360.6,51,361.6,52,361.6,53.5z"/>
	<path fill-rule="evenodd" clip-rule="evenodd" fill="#FFFFFF" d="M44.5,39.3c0,11-9.1,19.9-20.4,19.9c-11.3,0-20.4-8.9-20.4-19.9
		c0-11,9.1-19.9,20.4-19.9C35.3,19.3,44.5,28.3,44.5,39.3"/>
	<path fill-rule="evenodd" clip-rule="evenodd" d="M68,38.7L1.3,0l20.3,18c-0.3,0-0.5,0-0.8,0C9.3,18,0,27.4,0,39
		c0,11.6,9.3,20.9,20.9,20.9c0.7,0,1.5,0,2.2-0.1L2,78.8L68,38.7z M5.3,39c0-10.8,8.7-19.5,19.4-19.5c10.7,0,19.4,8.7,19.4,19.5
		s-8.7,19.5-19.4,19.5C14,58.4,5.3,49.7,5.3,39"/>
	<path fill-rule="evenodd" clip-rule="evenodd" fill="#DE050C" d="M31.5,31H13.5L12,35.7h3.3l-2.2,7.1H11l-1.6,4.7h20.3
		c4.8,0,10.6-1.4,11.9-7.6C42.5,35.6,41,31,31.5,31 M31.3,40.2c-0.6,1.3-2.8,2.6-4.8,2.6H23l2.3-7.1h4.2
		C31.3,35.9,32.1,37.9,31.3,40.2"/>
	<path d="M9.6,62.7v-1h0.7c0.3,0,0.7,0.1,0.7,0.5c0,0.5-0.4,0.5-0.8,0.5H9.6z M9.6,63.1h0.5l0.9,1.4h0.6l-0.9-1.5
		c0.5-0.1,0.9-0.3,0.9-0.9c0-0.7-0.4-1-1.2-1H9v3.3h0.5V63.1z M13.1,62.8c0-1.8-1.4-3-3-3c-1.6,0-3,1.2-3,3c0,1.7,1.2,3,3,3
		C11.7,65.9,13.1,64.7,13.1,62.8z M12.5,62.8c0,1.5-1,2.5-2.3,2.5c-1.4,0-2.3-1.1-2.3-2.5c0-1.5,1-2.5,2.3-2.5
		C11.4,60.3,12.5,61.4,12.5,62.8z"/>
</g>
</svg>
