<?xml version="1.0" encoding="utf-8"?>
<!-- Generator: Adobe Illustrator 22.1.0, SVG Export Plug-In . SVG Version: 6.00 Build 0)  -->
<svg version="1.1" id="OBJECTS" xmlns="http://www.w3.org/2000/svg" xmlns:xlink="http://www.w3.org/1999/xlink" x="0px" y="0px"
	 viewBox="0 0 129 157.6" enable-background="new 0 0 129 157.6" xml:space="preserve">
<path fill="#E2BB0D" d="M114.4,157.6H14.6c-8,0-14.6-6.6-14.6-14.6V17.7c0-8,6.6-14.6,14.6-14.6h99.9c8,0,14.6,6.6,14.6,14.6v125.4
	C129,151.1,122.4,157.6,114.4,157.6z"/>
<path fill="#FFFFFF" d="M73.4,136.9V84.4H91L93.6,64H73.4v-13C73.4,45,75,41,83.5,41l10.8,0V22.7c-1.9-0.2-8.3-0.8-15.8-0.8
	c-15.6,0-26.3,9.5-26.3,27V64H34.6v20.4h17.6v52.4H73.4L73.4,136.9z"/>
</svg>
