<?xml version="1.0" encoding="utf-8"?>
<!-- Generator: Adobe Illustrator 22.1.0, SVG Export Plug-In . SVG Version: 6.00 Build 0)  -->
<svg version="1.1" id="OBJECTS" xmlns="http://www.w3.org/2000/svg" xmlns:xlink="http://www.w3.org/1999/xlink" x="0px" y="0px"
	 viewBox="0 0 129 154.5" enable-background="new 0 0 129 154.5" xml:space="preserve">
<path fill="#E2BB0D" d="M114.4,154.5H14.6c-8,0-14.6-6.6-14.6-14.6V14.6C0,6.6,6.6,0,14.6,0h99.9c8,0,14.6,6.6,14.6,14.6v125.4
	C129,147.9,122.4,154.5,114.4,154.5z"/>
<g>
	<g>
		<path fill="#FFFFFF" d="M83.2,122.5H45.9c-16.5,0-30-13.5-30-30V59.7c0-16.5,13.5-30,30-30h37.3c16.5,0,30,13.4,30,30v32.8
			C113.2,109,99.7,122.5,83.2,122.5z M45.9,36.4c-12.9,0-23.3,10.5-23.3,23.3v32.8c0,12.9,10.5,23.3,23.3,23.3h37.3
			c12.9,0,23.3-10.5,23.3-23.3V59.7c0-12.9-10.5-23.3-23.3-23.3H45.9z"/>
	</g>
	<g>
		<path fill="#FFFFFF" d="M64.6,102.8c-14.7,0-26.7-12-26.7-26.7c0-14.7,12-26.7,26.7-26.7c14.7,0,26.7,12,26.7,26.7
			C91.2,90.8,79.3,102.8,64.6,102.8z M64.6,56.1c-11,0-20,9-20,20c0,11,9,20,20,20c11,0,20-9,20-20C84.6,65,75.6,56.1,64.6,56.1z"/>
	</g>
	<g>
		<path fill="#FFFFFF" d="M96.4,50.2c0,3.1-2.5,5.5-5.5,5.5c-3.1,0-5.5-2.5-5.5-5.5c0-3.1,2.5-5.5,5.5-5.5
			C93.9,44.7,96.4,47.2,96.4,50.2z"/>
	</g>
</g>
</svg>
