<?xml version="1.0" encoding="utf-8"?>
<!-- Generator: Adobe Illustrator 22.1.0, SVG Export Plug-In . SVG Version: 6.00 Build 0)  -->
<svg version="1.1" id="OBJECTS" xmlns="http://www.w3.org/2000/svg" xmlns:xlink="http://www.w3.org/1999/xlink" x="0px" y="0px"
	 viewBox="0 0 97.2 92.8" enable-background="new 0 0 97.2 92.8" xml:space="preserve">
<g>
	<g>
		<path d="M67.2,92.8H30c-16.5,0-30-13.5-30-30V30C0,13.4,13.5,0,30,0h37.3c16.5,0,30,13.4,30,30v32.8
			C97.2,79.3,83.8,92.8,67.2,92.8z M30,6.7C17.1,6.7,6.7,17.1,6.7,30v32.8c0,12.9,10.5,23.3,23.3,23.3h37.3
			c12.9,0,23.3-10.5,23.3-23.3V30c0-12.9-10.5-23.3-23.3-23.3H30z"/>
	</g>
	<g>
		<path d="M48.6,73.1c-14.7,0-26.7-12-26.7-26.7c0-14.7,12-26.7,26.7-26.7c14.7,0,26.7,12,26.7,26.7C75.3,61.1,63.3,73.1,48.6,73.1z
			 M48.6,26.4c-11,0-20,9-20,20c0,11,9,20,20,20c11,0,20-9,20-20C68.6,35.4,59.7,26.4,48.6,26.4z"/>
	</g>
	<g>
		<path d="M80.4,20.5c0,3.1-2.5,5.5-5.5,5.5c-3.1,0-5.5-2.5-5.5-5.5c0-3.1,2.5-5.5,5.5-5.5C77.9,15,80.4,17.5,80.4,20.5z"/>
	</g>
</g>
</svg>
