<?xml version="1.0" encoding="utf-8"?>
<!-- Generator: Adobe Illustrator 22.1.0, SVG Export Plug-In . SVG Version: 6.00 Build 0)  -->
<svg version="1.1" id="OBJECTS" xmlns="http://www.w3.org/2000/svg" xmlns:xlink="http://www.w3.org/1999/xlink" x="0px" y="0px"
	 viewBox="0 0 96.3 97.7" enable-background="new 0 0 96.3 97.7" xml:space="preserve">
<g>
	<g>
		<path fill="none" stroke="#E2BB0D" stroke-width="5" stroke-miterlimit="10" d="M90,79.7L69.6,59.3C66.6,64,62.5,68,57.8,71
			l20.4,20.4c3.3,3.3,8.5,3.3,11.8,0C93.2,88.2,93.2,82.9,90,79.7L90,79.7z M90,79.7"/>
	</g>
	<path fill="none" stroke="#E2BB0D" stroke-width="5" stroke-miterlimit="10" d="M70.2,38.3C70.2,19.9,55.3,5,36.9,5
		C18.5,5,3.5,19.9,3.5,38.3c0,18.4,14.9,33.3,33.3,33.3C55.3,71.7,70.2,56.7,70.2,38.3L70.2,38.3z M36.9,63.3c-13.8,0-25-11.2-25-25
		c0-13.8,11.2-25,25-25c13.8,0,25,11.2,25,25C61.9,52.1,50.7,63.3,36.9,63.3L36.9,63.3z M36.9,63.3"/>
	<path fill="none" stroke="#E2BB0D" stroke-width="5" stroke-miterlimit="10" d="M17.4,38.3H23c0-7.7,6.2-13.9,13.9-13.9v-5.6
		C26.2,18.9,17.4,27.6,17.4,38.3L17.4,38.3z M17.4,38.3"/>
</g>
</svg>
